<svg xmlns="http://www.w3.org/2000/svg"  viewBox="0 0 128 128" width="128px" height="128px"><path fill="#fff" d="M63.16,4.01C46.82,4.46,34,18.28,34,34.62V49c0,5.52,4.48,10,10,10h10v17v41.31c0,3.87,3.13,7,7,7h0.59 c5.2,0,9.41-4.21,9.41-9.41c0-2.5-0.99-4.89-2.76-6.65c-2.34-2.34-2.34-6.14,0-8.49L69,99c2.76-2.76,2.76-7.24,0-10 c-2.76-2.76-2.76-7.24,0-10l2.93-2.93c1.33-1.33,2.07-3.12,2.07-5V59h9.9c5.5,0,9.97-4.44,10-9.94L94,34 C94,17.15,80.11,3.55,63.16,4.01z"/><path fill="#71c2ff" d="M87.01,10.35c-6.44-6.27-14.97-9.59-23.94-9.33C45.39,1.5,31,16.58,31,34.62V49c0,7.17,5.83,13,13,13h27v8.76 c0,1.09-0.42,2.11-1.19,2.88l-2.93,2.93c-1.9,1.9-2.95,4.43-2.95,7.12c0,2.69,1.05,5.22,2.95,7.12c0.77,0.77,1.19,1.79,1.19,2.88 c0,1.09-0.42,2.11-1.19,2.88l-0.76,0.76c-1.7,1.7-2.64,3.96-2.64,6.37c0,2.4,0.94,4.66,2.64,6.36c1.21,1.21,1.88,2.82,1.88,4.53 c0,3.53-2.88,6.41-6.41,6.41H61c-2.21,0-4-1.79-4-4V80.69c0-1.66-1.34-3-3-3s-3,1.34-3,3V117c0,5.51,4.49,10,10,10h0.59 c6.84,0,12.41-5.57,12.41-12.41c0-3.32-1.29-6.43-3.63-8.78c-0.57-0.57-0.88-1.32-0.88-2.12c0-0.8,0.31-1.56,0.88-2.12l0.76-0.76 c1.9-1.9,2.95-4.43,2.95-7.12c0-2.69-1.05-5.22-2.95-7.12c-0.77-0.77-1.19-1.79-1.19-2.88c0-1.09,0.42-2.11,1.19-2.88l2.93-2.93 c1.9-1.9,2.95-4.43,2.95-7.12V62h6.9c7.13,0,12.96-5.8,13-12.92L97,34.02c0-0.01,0-0.01,0-0.02C97,25.01,93.45,16.61,87.01,10.35z"/><path fill="#fff" d="M70.08,29.27H56.41c-1.66,0-3-1.34-3-3s1.34-3,3-3h13.67c1.66,0,3,1.34,3,3S71.74,29.27,70.08,29.27z"/></svg>