<svg width="532" height="101" viewBox="0 0 532 101" fill="none" xmlns="http://www.w3.org/2000/svg">
<path d="M0 5C0 2.23858 2.23858 0 5 0H36C38.7614 0 41 2.23858 41 5V35C41 37.7614 38.7614 40 36 40H5C2.23858 40 0 37.7614 0 35V5Z" fill="url(#paint0_linear_3_947)"/>
<path d="M0 65C0 62.2386 2.23858 60 5 60H36C38.7614 60 41 62.2386 41 65V95C41 97.7614 38.7614 100 36 100H5C2.23858 100 0 97.7614 0 95V65Z" fill="url(#paint1_linear_3_947)"/>
<path d="M60 5C60 2.23858 62.2386 0 65 0H96C98.7614 0 101 2.23858 101 5V35C101 37.7614 98.7614 40 96 40H65C62.2386 40 60 37.7614 60 35V5Z" fill="url(#paint2_linear_3_947)"/>
<path d="M71 65C71 68.3137 68.3137 71 65 71C61.6863 71 59 68.3137 59 65C59 61.6863 61.6863 59 65 59C68.3137 59 71 61.6863 71 65Z" fill="url(#paint3_linear_3_947)"/>
<path d="M101 65C101 68.3137 98.3137 71 95 71C91.6863 71 89 68.3137 89 65C89 61.6863 91.6863 59 95 59C98.3137 59 101 61.6863 101 65Z" fill="url(#paint4_linear_3_947)"/>
<path d="M101 95C101 98.3137 98.3137 101 95 101C91.6863 101 89 98.3137 89 95C89 91.6863 91.6863 89 95 89C98.3137 89 101 91.6863 101 95Z" fill="url(#paint5_linear_3_947)"/>
<path d="M71 95C71 98.3137 68.3137 101 65 101C61.6863 101 59 98.3137 59 95C59 91.6863 61.6863 89 65 89C68.3137 89 71 91.6863 71 95Z" fill="url(#paint6_linear_3_947)"/>
<path d="M87 80C87 83.3137 84.3137 86 81 86C77.6863 86 75 83.3137 75 80C75 76.6863 77.6863 74 81 74C84.3137 74 87 76.6863 87 80Z" fill="url(#paint7_linear_3_947)"/>
<path d="M201.192 86.416C202.088 86.416 202.888 86.768 203.592 87.472C204.36 88.176 204.744 89.04 204.744 90.064C204.744 91.28 204.136 92.432 202.92 93.52C201.768 94.672 200.232 95.696 198.312 96.592C196.456 97.488 194.472 98.192 192.36 98.704C190.312 99.216 188.392 99.472 186.6 99.472C182.696 99.472 179.496 99.056 177 98.224C174.568 97.456 172.424 96.56 170.568 95.536C168.776 94.512 166.984 93.584 165.192 92.752C163.464 91.984 161.384 91.6 158.952 91.6C157.736 91.6 156.712 91.792 155.88 92.176C155.048 92.56 154.248 92.944 153.48 93.328C152.712 93.712 151.816 93.904 150.792 93.904C149.704 93.904 148.776 93.488 148.008 92.656C147.304 91.888 146.952 91.024 146.952 90.064C146.952 88.4 147.688 87.28 149.16 86.704L166.824 80.368L175.56 81.232L159.24 86.992L161.928 84.976C164.424 84.976 166.664 85.36 168.648 86.128C170.632 86.896 172.52 87.76 174.312 88.72C176.104 89.68 177.992 90.544 179.976 91.312C182.024 92.08 184.328 92.464 186.888 92.464C189.128 92.464 190.984 92.112 192.456 91.408C193.992 90.768 195.24 90.128 196.2 89.488C197.16 88.784 197.992 88.08 198.696 87.376C199.464 86.736 200.296 86.416 201.192 86.416ZM198.024 48.4C198.024 53.328 197.224 57.904 195.624 62.128C194.024 66.288 191.784 69.936 188.904 73.072C186.024 76.208 182.6 78.64 178.632 80.368C174.664 82.096 170.344 82.96 165.672 82.96C160.936 82.96 156.584 82.096 152.616 80.368C148.712 78.64 145.32 76.208 142.44 73.072C139.56 69.936 137.32 66.288 135.72 62.128C134.12 57.904 133.32 53.328 133.32 48.4C133.32 43.408 134.12 38.832 135.72 34.672C137.32 30.448 139.56 26.8 142.44 23.728C145.32 20.592 148.712 18.16 152.616 16.432C156.584 14.704 160.936 13.84 165.672 13.84C170.344 13.84 174.664 14.704 178.632 16.432C182.6 18.16 186.024 20.592 188.904 23.728C191.784 26.8 194.024 30.448 195.624 34.672C197.224 38.832 198.024 43.408 198.024 48.4ZM189.768 48.4C189.768 43.152 188.712 38.512 186.6 34.48C184.552 30.448 181.736 27.28 178.152 24.976C174.568 22.672 170.408 21.52 165.672 21.52C160.936 21.52 156.744 22.672 153.096 24.976C149.512 27.28 146.696 30.448 144.648 34.48C142.6 38.512 141.576 43.152 141.576 48.4C141.576 53.584 142.6 58.224 144.648 62.32C146.696 66.352 149.512 69.52 153.096 71.824C156.744 74.128 160.936 75.28 165.672 75.28C170.408 75.28 174.568 74.128 178.152 71.824C181.736 69.52 184.552 66.352 186.6 62.32C188.712 58.224 189.768 53.584 189.768 48.4Z" fill="url(#paint8_linear_3_947)"/>
<path d="M213.725 82C212.637 82 211.709 81.616 210.941 80.848C210.237 80.08 209.885 79.152 209.885 78.064V36.208C209.885 35.12 210.237 34.224 210.941 33.52C211.709 32.752 212.637 32.368 213.725 32.368C214.877 32.368 215.805 32.752 216.509 33.52C217.213 34.224 217.565 35.12 217.565 36.208V48.88L216.413 46.864C216.797 44.88 217.469 42.96 218.429 41.104C219.453 39.184 220.733 37.488 222.269 36.016C223.805 34.48 225.565 33.296 227.549 32.464C229.533 31.568 231.709 31.12 234.077 31.12C235.485 31.12 236.765 31.472 237.917 32.176C239.133 32.816 239.741 33.744 239.741 34.96C239.741 36.304 239.389 37.296 238.685 37.936C237.981 38.576 237.181 38.896 236.285 38.896C235.453 38.896 234.653 38.736 233.885 38.416C233.117 38.032 232.157 37.84 231.005 37.84C229.405 37.84 227.805 38.288 226.205 39.184C224.669 40.016 223.229 41.232 221.885 42.832C220.605 44.432 219.549 46.256 218.717 48.304C217.949 50.288 217.565 52.432 217.565 54.736V78.064C217.565 79.152 217.181 80.08 216.413 80.848C215.709 81.616 214.813 82 213.725 82Z" fill="url(#paint9_linear_3_947)"/>
<path d="M270.086 24.784L247.526 79.696C247.27 80.464 246.822 81.072 246.182 81.52C245.542 81.968 244.87 82.192 244.166 82.192C242.95 82.192 242.054 81.872 241.478 81.232C240.902 80.592 240.614 79.824 240.614 78.928C240.55 78.48 240.614 78 240.806 77.488L265.67 17.008C265.99 16.112 266.47 15.472 267.11 15.088C267.814 14.64 268.582 14.448 269.414 14.512C270.246 14.512 270.982 14.736 271.622 15.184C272.326 15.632 272.806 16.24 273.062 17.008L297.83 76.912C298.022 77.424 298.118 77.936 298.118 78.448C298.118 79.6 297.734 80.528 296.966 81.232C296.198 81.872 295.334 82.192 294.374 82.192C293.606 82.192 292.902 81.968 292.262 81.52C291.622 81.072 291.142 80.432 290.822 79.6L267.974 24.688L270.086 24.784ZM252.326 64.048L255.59 56.56H284.102L285.542 64.048H252.326Z" fill="url(#paint10_linear_3_947)"/>
<path d="M304.903 32.656H327.463C328.487 32.656 329.319 33.008 329.959 33.712C330.663 34.416 331.015 35.248 331.015 36.208C331.015 37.232 330.663 38.096 329.959 38.8C329.319 39.44 328.487 39.76 327.463 39.76H304.903C303.943 39.76 303.111 39.408 302.407 38.704C301.703 38 301.351 37.136 301.351 36.112C301.351 35.152 301.703 34.352 302.407 33.712C303.111 33.008 303.943 32.656 304.903 32.656ZM314.983 19.6C316.071 19.6 316.967 19.984 317.671 20.752C318.375 21.456 318.727 22.352 318.727 23.44V69.808C318.727 71.344 318.951 72.496 319.399 73.264C319.847 74.032 320.423 74.576 321.127 74.896C321.895 75.152 322.631 75.28 323.335 75.28C323.975 75.28 324.519 75.184 324.967 74.992C325.479 74.736 326.055 74.608 326.695 74.608C327.335 74.608 327.911 74.928 328.423 75.568C328.999 76.144 329.287 76.912 329.287 77.872C329.287 79.024 328.615 80.016 327.271 80.848C325.927 81.616 324.423 82 322.759 82C321.863 82 320.743 81.936 319.399 81.808C318.119 81.68 316.839 81.264 315.559 80.56C314.279 79.856 313.191 78.704 312.295 77.104C311.463 75.44 311.047 73.136 311.047 70.192V23.44C311.047 22.352 311.431 21.456 312.199 20.752C312.967 19.984 313.895 19.6 314.983 19.6Z" fill="url(#paint11_linear_3_947)"/>
<path d="M339.778 32.656H362.338C363.362 32.656 364.194 33.008 364.834 33.712C365.538 34.416 365.89 35.248 365.89 36.208C365.89 37.232 365.538 38.096 364.834 38.8C364.194 39.44 363.362 39.76 362.338 39.76H339.778C338.818 39.76 337.986 39.408 337.282 38.704C336.578 38 336.226 37.136 336.226 36.112C336.226 35.152 336.578 34.352 337.282 33.712C337.986 33.008 338.818 32.656 339.778 32.656ZM349.858 19.6C350.946 19.6 351.842 19.984 352.546 20.752C353.25 21.456 353.602 22.352 353.602 23.44V69.808C353.602 71.344 353.826 72.496 354.274 73.264C354.722 74.032 355.298 74.576 356.002 74.896C356.77 75.152 357.506 75.28 358.21 75.28C358.85 75.28 359.394 75.184 359.842 74.992C360.354 74.736 360.93 74.608 361.57 74.608C362.21 74.608 362.786 74.928 363.298 75.568C363.874 76.144 364.162 76.912 364.162 77.872C364.162 79.024 363.49 80.016 362.146 80.848C360.802 81.616 359.298 82 357.634 82C356.738 82 355.618 81.936 354.274 81.808C352.994 81.68 351.714 81.264 350.434 80.56C349.154 79.856 348.066 78.704 347.17 77.104C346.338 75.44 345.922 73.136 345.922 70.192V23.44C345.922 22.352 346.306 21.456 347.074 20.752C347.842 19.984 348.77 19.6 349.858 19.6Z" fill="url(#paint12_linear_3_947)"/>
<path d="M399.048 82.96C393.928 82.96 389.448 81.872 385.608 79.696C381.768 77.52 378.76 74.544 376.584 70.768C374.472 66.928 373.416 62.512 373.416 57.52C373.416 51.952 374.504 47.216 376.68 43.312C378.92 39.344 381.8 36.336 385.32 34.288C388.904 32.176 392.68 31.12 396.648 31.12C399.592 31.12 402.44 31.664 405.192 32.752C407.944 33.84 410.376 35.44 412.488 37.552C414.6 39.6 416.296 42.096 417.576 45.04C418.856 47.92 419.528 51.152 419.592 54.736C419.592 55.76 419.208 56.624 418.44 57.328C417.672 58.032 416.776 58.384 415.752 58.384H377.832L376.104 51.76H413.064L411.528 53.104V50.992C411.272 48.368 410.376 46.128 408.84 44.272C407.368 42.352 405.544 40.88 403.368 39.856C401.256 38.832 399.016 38.32 396.648 38.32C394.728 38.32 392.808 38.672 390.888 39.376C389.032 40.016 387.336 41.104 385.8 42.64C384.328 44.112 383.112 46.032 382.152 48.4C381.256 50.768 380.808 53.616 380.808 56.944C380.808 60.656 381.544 63.92 383.016 66.736C384.552 69.552 386.664 71.792 389.352 73.456C392.04 75.056 395.176 75.856 398.76 75.856C401 75.856 402.952 75.568 404.616 74.992C406.28 74.416 407.72 73.712 408.936 72.88C410.152 71.984 411.176 71.088 412.008 70.192C412.84 69.616 413.64 69.328 414.408 69.328C415.368 69.328 416.136 69.648 416.712 70.288C417.352 70.928 417.672 71.696 417.672 72.592C417.672 73.68 417.16 74.64 416.136 75.472C414.344 77.456 411.912 79.216 408.84 80.752C405.768 82.224 402.504 82.96 399.048 82.96Z" fill="url(#paint13_linear_3_947)"/>
<path d="M455.807 31.12C460.159 31.12 463.583 32.016 466.079 33.808C468.575 35.6 470.335 38 471.359 41.008C472.447 44.016 472.991 47.376 472.991 51.088V78.064C472.991 79.152 472.607 80.08 471.839 80.848C471.135 81.616 470.239 82 469.151 82C468.063 82 467.135 81.616 466.367 80.848C465.663 80.08 465.311 79.152 465.311 78.064V51.28C465.311 48.848 464.927 46.672 464.159 44.752C463.455 42.768 462.239 41.2 460.511 40.048C458.847 38.832 456.543 38.224 453.599 38.224C450.911 38.224 448.447 38.832 446.207 40.048C443.967 41.2 442.175 42.768 440.831 44.752C439.487 46.672 438.815 48.848 438.815 51.28V78.064C438.815 79.152 438.431 80.08 437.663 80.848C436.959 81.616 436.063 82 434.975 82C433.887 82 432.959 81.616 432.191 80.848C431.487 80.08 431.135 79.152 431.135 78.064V36.208C431.135 35.12 431.487 34.224 432.191 33.52C432.959 32.752 433.887 32.368 434.975 32.368C436.127 32.368 437.055 32.752 437.759 33.52C438.463 34.224 438.815 35.12 438.815 36.208V43.024L436.895 45.136C437.215 43.472 437.951 41.808 439.103 40.144C440.255 38.416 441.695 36.88 443.423 35.536C445.151 34.192 447.071 33.136 449.183 32.368C451.295 31.536 453.503 31.12 455.807 31.12Z" fill="url(#paint14_linear_3_947)"/>
<path d="M528.094 10.96C529.182 10.96 530.078 11.344 530.782 12.112C531.55 12.816 531.934 13.712 531.934 14.8V78.064C531.934 79.152 531.55 80.08 530.782 80.848C530.078 81.616 529.182 82 528.094 82C526.942 82 526.014 81.616 525.31 80.848C524.606 80.08 524.254 79.152 524.254 78.064V68.944L526.078 68.272C526.078 69.808 525.598 71.44 524.638 73.168C523.678 74.832 522.366 76.4 520.702 77.872C519.038 79.344 517.054 80.56 514.75 81.52C512.51 82.48 510.078 82.96 507.454 82.96C503.166 82.96 499.262 81.84 495.742 79.6C492.286 77.36 489.534 74.288 487.486 70.384C485.502 66.48 484.51 62.032 484.51 57.04C484.51 51.984 485.502 47.504 487.486 43.6C489.534 39.696 492.286 36.656 495.742 34.48C499.198 32.24 503.038 31.12 507.262 31.12C509.95 31.12 512.478 31.568 514.846 32.464C517.214 33.36 519.262 34.576 520.99 36.112C522.782 37.648 524.19 39.344 525.214 41.2C526.238 43.056 526.75 44.912 526.75 46.768L524.254 46.192V14.8C524.254 13.712 524.606 12.816 525.31 12.112C526.014 11.344 526.942 10.96 528.094 10.96ZM508.318 75.856C511.518 75.856 514.334 75.056 516.766 73.456C519.262 71.792 521.182 69.552 522.526 66.736C523.934 63.856 524.638 60.624 524.638 57.04C524.638 53.392 523.934 50.16 522.526 47.344C521.182 44.528 519.262 42.32 516.766 40.72C514.334 39.056 511.518 38.224 508.318 38.224C505.182 38.224 502.366 39.056 499.87 40.72C497.438 42.32 495.518 44.528 494.11 47.344C492.702 50.16 491.998 53.392 491.998 57.04C491.998 60.56 492.702 63.76 494.11 66.64C495.518 69.456 497.438 71.696 499.87 73.36C502.366 75.024 505.182 75.856 508.318 75.856Z" fill="url(#paint15_linear_3_947)"/>
<defs>
<linearGradient id="paint0_linear_3_947" x1="510" y1="51" x2="43.5" y2="51" gradientUnits="userSpaceOnUse">
<stop stop-color="#023E8A"/>
<stop offset="1" stop-color="#018DD7"/>
</linearGradient>
<linearGradient id="paint1_linear_3_947" x1="510" y1="51" x2="43.5" y2="51" gradientUnits="userSpaceOnUse">
<stop stop-color="#023E8A"/>
<stop offset="1" stop-color="#018DD7"/>
</linearGradient>
<linearGradient id="paint2_linear_3_947" x1="510" y1="51" x2="43.5" y2="51" gradientUnits="userSpaceOnUse">
<stop stop-color="#023E8A"/>
<stop offset="1" stop-color="#018DD7"/>
</linearGradient>
<linearGradient id="paint3_linear_3_947" x1="510" y1="51" x2="43.5" y2="51" gradientUnits="userSpaceOnUse">
<stop stop-color="#023E8A"/>
<stop offset="1" stop-color="#018DD7"/>
</linearGradient>
<linearGradient id="paint4_linear_3_947" x1="510" y1="51" x2="43.5" y2="51" gradientUnits="userSpaceOnUse">
<stop stop-color="#023E8A"/>
<stop offset="1" stop-color="#018DD7"/>
</linearGradient>
<linearGradient id="paint5_linear_3_947" x1="510" y1="51" x2="43.5" y2="51" gradientUnits="userSpaceOnUse">
<stop stop-color="#023E8A"/>
<stop offset="1" stop-color="#018DD7"/>
</linearGradient>
<linearGradient id="paint6_linear_3_947" x1="510" y1="51" x2="43.5" y2="51" gradientUnits="userSpaceOnUse">
<stop stop-color="#023E8A"/>
<stop offset="1" stop-color="#018DD7"/>
</linearGradient>
<linearGradient id="paint7_linear_3_947" x1="510" y1="51" x2="43.5" y2="51" gradientUnits="userSpaceOnUse">
<stop stop-color="#023E8A"/>
<stop offset="1" stop-color="#018DD7"/>
</linearGradient>
<linearGradient id="paint8_linear_3_947" x1="510" y1="51" x2="43.5" y2="51" gradientUnits="userSpaceOnUse">
<stop stop-color="#023E8A"/>
<stop offset="1" stop-color="#018DD7"/>
</linearGradient>
<linearGradient id="paint9_linear_3_947" x1="510" y1="51" x2="43.5" y2="51" gradientUnits="userSpaceOnUse">
<stop stop-color="#023E8A"/>
<stop offset="1" stop-color="#018DD7"/>
</linearGradient>
<linearGradient id="paint10_linear_3_947" x1="510" y1="51" x2="43.5" y2="51" gradientUnits="userSpaceOnUse">
<stop stop-color="#023E8A"/>
<stop offset="1" stop-color="#018DD7"/>
</linearGradient>
<linearGradient id="paint11_linear_3_947" x1="510" y1="51" x2="43.5" y2="51" gradientUnits="userSpaceOnUse">
<stop stop-color="#023E8A"/>
<stop offset="1" stop-color="#018DD7"/>
</linearGradient>
<linearGradient id="paint12_linear_3_947" x1="510" y1="51" x2="43.5" y2="51" gradientUnits="userSpaceOnUse">
<stop stop-color="#023E8A"/>
<stop offset="1" stop-color="#018DD7"/>
</linearGradient>
<linearGradient id="paint13_linear_3_947" x1="510" y1="51" x2="43.5" y2="51" gradientUnits="userSpaceOnUse">
<stop stop-color="#023E8A"/>
<stop offset="1" stop-color="#018DD7"/>
</linearGradient>
<linearGradient id="paint14_linear_3_947" x1="510" y1="51" x2="43.5" y2="51" gradientUnits="userSpaceOnUse">
<stop stop-color="#023E8A"/>
<stop offset="1" stop-color="#018DD7"/>
</linearGradient>
<linearGradient id="paint15_linear_3_947" x1="510" y1="51" x2="43.5" y2="51" gradientUnits="userSpaceOnUse">
<stop stop-color="#023E8A"/>
<stop offset="1" stop-color="#018DD7"/>
</linearGradient>
</defs>
</svg>
